<svg width="67" height="71" viewBox="0 0 67 71" fill="none" xmlns="http://www.w3.org/2000/svg">
  <path d="M35.7652 68.2753C41.2021 65.9394 44.7364 61.1811 46.8351 56.5935C50.1164 49.4208 61.7061 46.4553 64.5853 44.4115C68.5826 41.5754 64.9109 35.8346 58.968 36.7838C52.5642 37.8077 51.0186 40.5948 47.1587 42.2835C45.1895 43.1426 43.7989 42.866 43.5361 39.2316C43.3439 36.5661 46.7841 15.6228 47.8314 5.96707C48.1904 2.66219 46.8135 0.779296 44.1539 0.424291C41.1413 0.0222136 39.582 1.6619 38.9446 4.68043C37.3559 12.1963 34.8375 26.93 33.7803 27.7616C28.1002 31.3254 20.5275 35.9875 13.7588 26.932C13.7588 26.932 10.5206 9.9447 10.0166 6.51625C9.14377 0.581199 1.12968 1.6521 1.78673 7.84017C2.4026 13.6693 4.31492 27.4243 2.63992 32.31C1.16891 36.6034 -1.42792 51.339 4.29334 60.3122C9.93812 69.1658 25.0052 72.8982 35.7652 68.2753Z" fill="#FFDC5D" />
  <path d="M15.5319 44.4376C17.2284 52.5889 27.0764 51.673 26.4546 43.908C25.9506 37.5924 24.0324 26.5579 23.4087 23.8002C22.1377 18.1574 12.3094 19.4107 13.1135 26.0734C13.6352 30.3982 14.2119 38.0926 15.5319 44.4376Z" fill="#EF9645" />
  <path d="M17.3442 43.608C18.9034 50.3727 26.031 48.4918 25.6681 42.1684C25.3053 35.843 23.8421 26.205 23.3949 23.412C22.3476 16.8885 13.9687 19.8247 14.6493 24.63C15.3298 29.4353 16.1811 38.5634 17.3442 43.608Z" fill="#FFDC5D" />
  <path d="M23.1733 46.2136C23.3086 55.9085 34.1196 55.3809 34.9669 48.1239C35.7024 41.8319 34.1451 27.9612 34.0294 25.133C33.8117 19.8706 24.1932 19.8334 23.8774 25.8096C23.6224 30.6581 23.1007 41.0376 23.1733 46.2136Z" fill="#EF9645" />
  <path d="M25.0111 46.5007C24.7345 52.5299 32.884 53.2125 33.4743 46.9067C34.0667 40.601 33.9254 27.1186 33.8784 24.2923C33.7979 19.3733 25.574 19.5478 25.3426 25.5888C25.1582 30.4373 25.2464 41.3286 25.0111 46.5007Z" fill="#FFDC5D" />
</svg>